<svg width="1200" height="800" viewBox="0 0 1200 800" fill="none" xmlns="http://www.w3.org/2000/svg">
<rect width="1200" height="800" fill="white"/>
<circle cx="468.646" cy="350.646" r="20.6461" fill="#2D0C00"/>
<circle cx="509.646" cy="425.646" r="20.6461" fill="#2D0C00"/>
<circle cx="369.646" cy="388.646" r="20.6461" fill="#2D0C00"/>
<circle cx="289.646" cy="176.646" r="20.6461" fill="#2D0C00"/>
<circle cx="427.646" cy="230.646" r="20.6461" fill="#2D0C00"/>
<circle cx="492.5" cy="268.5" r="37.5" fill="#72CA97"/>
<circle cx="179.5" cy="352.5" r="37.5" fill="#2D0C00"/>
<circle cx="391.5" cy="451.5" r="37.5" fill="#6C757D"/>
<circle cx="378.5" cy="172.5" r="37.5" fill="#2D0C00"/>
<circle cx="226" cy="263" r="46" fill="#6390CC"/>
<circle cx="165" cy="465" r="46" fill="#2D0C00"/>
<circle cx="390" cy="297" r="46" fill="#2D0C00"/>
<circle cx="282.5" cy="388.5" r="45.5" fill="#FFDC27"/>
<circle cx="252.5" cy="588.5" r="45.5" fill="#FF4500"/>
<circle cx="409.5" cy="568.5" r="45.5" fill="#2D0C00"/>
<circle cx="303.646" cy="502.646" r="20.6461" fill="#2D0C00"/>
<circle cx="796.91" cy="346.146" r="10" fill="#FF4500"/>
<circle cx="800" cy="419" r="10" fill="#FF4500"/>
<circle cx="800" cy="490" r="10" fill="#FF4500"/>
<circle cx="800" cy="560" r="10" fill="#FF4500"/>
<path d="M806.91 275.921C806.91 281.444 802.433 285.921 796.91 285.921C791.387 285.921 786.91 281.444 786.91 275.921C786.91 270.399 791.387 265.921 796.91 265.921C802.433 265.921 806.91 270.399 806.91 275.921Z" fill="#FF4500"/>
<circle cx="981" cy="349" r="10" fill="#FF4500"/>
<circle cx="981" cy="419" r="10" fill="#FF4500"/>
<circle cx="981" cy="490" r="10" fill="#FF4500"/>
<circle cx="981" cy="560" r="10" fill="#FF4500"/>
<path d="M991 279C991 284.523 986.523 289 981 289C975.477 289 971 284.523 971 279C971 273.477 975.477 269 981 269C986.523 269 991 273.477 991 279Z" fill="#FF4500"/>
<circle cx="707.022" cy="305.416" r="10" fill="#FF4500"/>
<circle cx="707.022" cy="375.64" r="10" fill="#FF4500"/>
<circle cx="707.022" cy="445.865" r="10" fill="#FF4500"/>
<circle cx="707.022" cy="516.09" r="10" fill="#FF4500"/>
<circle cx="1071" cy="308" r="10" fill="#FF4500"/>
<circle cx="1071" cy="379" r="10" fill="#FF4500"/>
<circle cx="1071" cy="449" r="10" fill="#FF4500"/>
<circle cx="1071" cy="519" r="10" fill="#FF4500"/>
<circle cx="890" cy="388" r="10" fill="#FF4500"/>
<circle cx="890" cy="459" r="10" fill="#FF4500"/>
<circle cx="890" cy="529" r="10" fill="#FF4500"/>
<circle cx="890" cy="599" r="10" fill="#FF4500"/>
<path d="M900 318C900 323.523 895.523 328 890 328C884.477 328 880 323.523 880 318C880 312.477 884.477 308 890 308C895.523 308 900 312.477 900 318Z" fill="#FF4500"/>
<path d="M900 248C900 253.523 895.523 258 890 258C884.477 258 880 253.523 880 248C880 242.477 884.477 238 890 238C895.523 238 900 242.477 900 248Z" fill="#FF4500"/>
</svg>
