<svg width="384" height="371" viewBox="0 0 384 371" fill="none" xmlns="http://www.w3.org/2000/svg">
<circle cx="99.9102" cy="108.146" r="10" fill="#FF4500"/>
<circle cx="103" cy="181" r="10" fill="#FF4500"/>
<circle cx="103" cy="252" r="10" fill="#FF4500"/>
<circle cx="103" cy="322" r="10" fill="#FF4500"/>
<path d="M109.91 37.9214C109.91 43.4443 105.433 47.9214 99.9102 47.9214C94.3873 47.9214 89.9102 43.4443 89.9102 37.9214C89.9102 32.3986 94.3873 27.9214 99.9102 27.9214C105.433 27.9214 109.91 32.3986 109.91 37.9214Z" fill="#FF4500"/>
<circle cx="284" cy="111" r="10" fill="#FF4500"/>
<circle cx="284" cy="181" r="10" fill="#FF4500"/>
<circle cx="284" cy="252" r="10" fill="#FF4500"/>
<circle cx="284" cy="322" r="10" fill="#FF4500"/>
<path d="M294 41.0001C294 46.5229 289.523 51.0001 284 51.0001C278.477 51.0001 274 46.5229 274 41.0001C274 35.4772 278.477 31.0001 284 31.0001C289.523 31.0001 294 35.4772 294 41.0001Z" fill="#FF4500"/>
<circle cx="10.0225" cy="67.4158" r="10" fill="#FF4500"/>
<circle cx="10.0225" cy="137.64" r="10" fill="#FF4500"/>
<circle cx="10.0225" cy="207.865" r="10" fill="#FF4500"/>
<circle cx="10.0225" cy="278.09" r="10" fill="#FF4500"/>
<circle cx="374" cy="70" r="10" fill="#FF4500"/>
<circle cx="374" cy="141" r="10" fill="#FF4500"/>
<circle cx="374" cy="211" r="10" fill="#FF4500"/>
<circle cx="374" cy="281" r="10" fill="#FF4500"/>
<circle cx="193" cy="150" r="10" fill="#FF4500"/>
<circle cx="193" cy="221" r="10" fill="#FF4500"/>
<circle cx="193" cy="291" r="10" fill="#FF4500"/>
<circle cx="193" cy="361" r="10" fill="#FF4500"/>
<path d="M203 80.0001C203 85.5229 198.523 90.0001 193 90.0001C187.477 90.0001 183 85.5229 183 80.0001C183 74.4772 187.477 70.0001 193 70.0001C198.523 70.0001 203 74.4772 203 80.0001Z" fill="#FF4500"/>
<path d="M203 10.0001C203 15.5229 198.523 20.0001 193 20.0001C187.477 20.0001 183 15.5229 183 10.0001C183 4.47721 187.477 5.88322e-05 193 5.88322e-05C198.523 5.88322e-05 203 4.47721 203 10.0001Z" fill="#FF4500"/>
</svg>
