<svg width="1200" height="800" viewBox="0 0 1200 800" fill="none" xmlns="http://www.w3.org/2000/svg">
<rect width="1200" height="800" fill="white"/>
<circle cx="246.646" cy="297.646" r="20.6461" fill="#2D0C00"/>
<circle cx="297.573" cy="297.646" r="20.6461" fill="#2D0C00"/>
<circle cx="348.5" cy="297.646" r="20.6461" fill="#2D0C00"/>
<circle cx="399.427" cy="297.646" r="20.6461" fill="#2D0C00"/>
<circle cx="450.354" cy="297.646" r="20.6461" fill="#2D0C00"/>
<circle cx="501.281" cy="297.646" r="20.6461" fill="#2D0C00"/>
<circle cx="552.208" cy="297.646" r="20.6461" fill="#2D0C00"/>
<circle cx="246.646" cy="348.573" r="20.6461" fill="#2D0C00"/>
<circle cx="297.573" cy="348.573" r="20.6461" fill="#2D0C00"/>
<circle cx="348.5" cy="348.573" r="20.6461" fill="#2D0C00"/>
<circle cx="399.427" cy="348.573" r="20.6461" fill="#2D0C00"/>
<circle cx="450.354" cy="348.573" r="20.6461" fill="#2D0C00"/>
<circle cx="501.281" cy="348.573" r="20.6461" fill="#2D0C00"/>
<circle cx="552.208" cy="348.573" r="20.6461" fill="#2D0C00"/>
<circle cx="246.646" cy="399.5" r="20.6461" fill="#2D0C00"/>
<circle cx="297.573" cy="399.5" r="20.6461" fill="#2D0C00"/>
<circle cx="348.5" cy="399.5" r="20.6461" fill="#2D0C00"/>
<circle cx="399.427" cy="399.5" r="20.6461" fill="#2D0C00"/>
<circle cx="450.354" cy="399.5" r="20.6461" fill="#2D0C00"/>
<circle cx="501.281" cy="399.5" r="20.6461" fill="#2D0C00"/>
<circle cx="552.208" cy="399.5" r="20.6461" fill="#2D0C00"/>
<circle cx="246.646" cy="450.427" r="20.6461" fill="#2D0C00"/>
<circle cx="297.573" cy="450.427" r="20.6461" fill="#2D0C00"/>
<circle cx="348.5" cy="450.427" r="20.6461" fill="#2D0C00"/>
<circle cx="399.427" cy="450.427" r="20.6461" fill="#2D0C00"/>
<circle cx="450.354" cy="450.427" r="20.6461" fill="#2D0C00"/>
<circle cx="501.281" cy="450.427" r="20.6461" fill="#2D0C00"/>
<circle cx="552.208" cy="450.427" r="20.6461" fill="#2D0C00"/>
<circle cx="246.646" cy="501.354" r="20.6461" fill="#2D0C00"/>
<circle cx="297.573" cy="501.354" r="20.6461" fill="#2D0C00"/>
<circle cx="348.5" cy="501.354" r="20.6461" fill="#2D0C00"/>
<circle cx="647.646" cy="297.646" r="20.6461" fill="#FF4500"/>
<circle cx="698.573" cy="297.646" r="20.6461" fill="#FF4500"/>
<circle cx="749.5" cy="297.646" r="20.6461" fill="#FF4500"/>
<circle cx="800.427" cy="297.646" r="20.6461" fill="#FF4500"/>
<circle cx="851.354" cy="297.646" r="20.6461" fill="#FF4500"/>
<circle cx="902.281" cy="297.646" r="20.6461" fill="#FF4500"/>
<circle cx="953.208" cy="297.646" r="20.6461" fill="#D9D9D9"/>
<circle cx="647.646" cy="348.573" r="20.6461" fill="#D9D9D9"/>
<circle cx="698.573" cy="348.573" r="20.6461" fill="#D9D9D9"/>
<circle cx="749.5" cy="348.573" r="20.6461" fill="#D9D9D9"/>
<circle cx="800.427" cy="348.573" r="20.6461" fill="#D9D9D9"/>
<circle cx="851.354" cy="348.573" r="20.6461" fill="#D9D9D9"/>
<circle cx="902.281" cy="348.573" r="20.6461" fill="#D9D9D9"/>
<circle cx="953.208" cy="348.573" r="20.6461" fill="#D9D9D9"/>
<circle cx="647.646" cy="399.5" r="20.6461" fill="#D9D9D9"/>
<circle cx="698.573" cy="399.5" r="20.6461" fill="#D9D9D9"/>
<circle cx="749.5" cy="399.5" r="20.6461" fill="#D9D9D9"/>
<circle cx="800.427" cy="399.5" r="20.6461" fill="#D9D9D9"/>
<circle cx="851.354" cy="399.5" r="20.6461" fill="#D9D9D9"/>
<circle cx="902.281" cy="399.5" r="20.6461" fill="#D9D9D9"/>
<circle cx="953.208" cy="399.5" r="20.6461" fill="#D9D9D9"/>
<circle cx="647.646" cy="450.427" r="20.6461" fill="#D9D9D9"/>
<circle cx="698.573" cy="450.427" r="20.6461" fill="#D9D9D9"/>
<circle cx="749.5" cy="450.427" r="20.6461" fill="#D9D9D9"/>
<circle cx="800.427" cy="450.427" r="20.6461" fill="#D9D9D9"/>
<circle cx="851.354" cy="450.427" r="20.6461" fill="#D9D9D9"/>
<circle cx="902.281" cy="450.427" r="20.6461" fill="#D9D9D9"/>
<circle cx="953.208" cy="450.427" r="20.6461" fill="#D9D9D9"/>
<circle cx="647.646" cy="501.354" r="20.6461" fill="#D9D9D9"/>
<circle cx="698.573" cy="501.354" r="20.6461" fill="#D9D9D9"/>
<circle cx="749.5" cy="501.354" r="20.6461" fill="#D9D9D9"/>
<path d="M242.636 572.364V584H241.273L234.932 574.864H234.818V584H233.409V572.364H234.773L241.136 581.523H241.25V572.364H242.636ZM257.034 578.182C257.034 579.409 256.813 580.47 256.369 581.364C255.926 582.258 255.318 582.947 254.546 583.432C253.773 583.917 252.89 584.159 251.898 584.159C250.905 584.159 250.023 583.917 249.25 583.432C248.477 582.947 247.869 582.258 247.426 581.364C246.983 580.47 246.761 579.409 246.761 578.182C246.761 576.955 246.983 575.894 247.426 575C247.869 574.106 248.477 573.417 249.25 572.932C250.023 572.447 250.905 572.205 251.898 572.205C252.89 572.205 253.773 572.447 254.546 572.932C255.318 573.417 255.926 574.106 256.369 575C256.813 575.894 257.034 576.955 257.034 578.182ZM255.671 578.182C255.671 577.174 255.502 576.324 255.165 575.631C254.831 574.938 254.379 574.413 253.807 574.057C253.239 573.701 252.602 573.523 251.898 573.523C251.193 573.523 250.555 573.701 249.983 574.057C249.415 574.413 248.962 574.938 248.625 575.631C248.292 576.324 248.125 577.174 248.125 578.182C248.125 579.189 248.292 580.04 248.625 580.733C248.962 581.426 249.415 581.951 249.983 582.307C250.555 582.663 251.193 582.841 251.898 582.841C252.602 582.841 253.239 582.663 253.807 582.307C254.379 581.951 254.831 581.426 255.165 580.733C255.502 580.04 255.671 579.189 255.671 578.182ZM270.391 572.364V584H269.027L262.686 574.864H262.573V584H261.163V572.364H262.527L268.891 581.523H269.004V572.364H270.391ZM291.049 578.182C291.049 579.409 290.827 580.47 290.384 581.364C289.941 582.258 289.333 582.947 288.56 583.432C287.787 583.917 286.905 584.159 285.912 584.159C284.92 584.159 284.037 583.917 283.264 583.432C282.492 582.947 281.884 582.258 281.441 581.364C280.997 580.47 280.776 579.409 280.776 578.182C280.776 576.955 280.997 575.894 281.441 575C281.884 574.106 282.492 573.417 283.264 572.932C284.037 572.447 284.92 572.205 285.912 572.205C286.905 572.205 287.787 572.447 288.56 572.932C289.333 573.417 289.941 574.106 290.384 575C290.827 575.894 291.049 576.955 291.049 578.182ZM289.685 578.182C289.685 577.174 289.516 576.324 289.179 575.631C288.846 574.938 288.393 574.413 287.821 574.057C287.253 573.701 286.617 573.523 285.912 573.523C285.208 573.523 284.569 573.701 283.997 574.057C283.429 574.413 282.977 574.938 282.639 575.631C282.306 576.324 282.139 577.174 282.139 578.182C282.139 579.189 282.306 580.04 282.639 580.733C282.977 581.426 283.429 581.951 283.997 582.307C284.569 582.663 285.208 582.841 285.912 582.841C286.617 582.841 287.253 582.663 287.821 582.307C288.393 581.951 288.846 581.426 289.179 580.733C289.516 580.04 289.685 579.189 289.685 578.182ZM294.057 573.614V572.364H302.784V573.614H299.125V584H297.716V573.614H294.057ZM306.083 573.614V572.364H314.81V573.614H311.151V584H309.742V573.614H306.083ZM320.154 572.364V584H318.745V572.364H320.154ZM324.739 572.364H326.421L330.375 582.023H330.512L334.466 572.364H336.148V584H334.83V575.159H334.716L331.08 584H329.807L326.171 575.159H326.057V584H324.739V572.364ZM342.143 572.364V584H340.733V572.364H342.143ZM346.341 584V582.977L352.614 573.614H346.273V572.364H354.296V573.386L348.023 582.75H354.364V584H346.341ZM358.101 584V582.977L364.374 573.614H358.033V572.364H366.056V573.386L359.783 582.75H366.124V584H358.101ZM370.725 584H369.248L373.521 572.364H374.975L379.248 584H377.771L374.293 574.205H374.202L370.725 584ZM371.271 579.455H377.225V580.705H371.271V579.455ZM380.825 573.614V572.364H389.552V573.614H385.893V584H384.484V573.614H380.825ZM402.82 578.182C402.82 579.409 402.599 580.47 402.156 581.364C401.712 582.258 401.104 582.947 400.332 583.432C399.559 583.917 398.676 584.159 397.684 584.159C396.692 584.159 395.809 583.917 395.036 583.432C394.264 582.947 393.656 582.258 393.212 581.364C392.769 580.47 392.548 579.409 392.548 578.182C392.548 576.955 392.769 575.894 393.212 575C393.656 574.106 394.264 573.417 395.036 572.932C395.809 572.447 396.692 572.205 397.684 572.205C398.676 572.205 399.559 572.447 400.332 572.932C401.104 573.417 401.712 574.106 402.156 575C402.599 575.894 402.82 576.955 402.82 578.182ZM401.457 578.182C401.457 577.174 401.288 576.324 400.951 575.631C400.618 574.938 400.165 574.413 399.593 574.057C399.025 573.701 398.389 573.523 397.684 573.523C396.979 573.523 396.341 573.701 395.769 574.057C395.201 574.413 394.748 574.938 394.411 575.631C394.078 576.324 393.911 577.174 393.911 578.182C393.911 579.189 394.078 580.04 394.411 580.733C394.748 581.426 395.201 581.951 395.769 582.307C396.341 582.663 396.979 582.841 397.684 582.841C398.389 582.841 399.025 582.663 399.593 582.307C400.165 581.951 400.618 581.426 400.951 580.733C401.288 580.04 401.457 579.189 401.457 578.182Z" fill="black"/>
<path d="M648.227 578.182C648.227 579.409 648.006 580.47 647.562 581.364C647.119 582.258 646.511 582.947 645.739 583.432C644.966 583.917 644.083 584.159 643.091 584.159C642.098 584.159 641.216 583.917 640.443 583.432C639.67 582.947 639.063 582.258 638.619 581.364C638.176 580.47 637.955 579.409 637.955 578.182C637.955 576.955 638.176 575.894 638.619 575C639.063 574.106 639.67 573.417 640.443 572.932C641.216 572.447 642.098 572.205 643.091 572.205C644.083 572.205 644.966 572.447 645.739 572.932C646.511 573.417 647.119 574.106 647.562 575C648.006 575.894 648.227 576.955 648.227 578.182ZM646.864 578.182C646.864 577.174 646.695 576.324 646.358 575.631C646.025 574.938 645.572 574.413 645 574.057C644.432 573.701 643.795 573.523 643.091 573.523C642.386 573.523 641.748 573.701 641.176 574.057C640.608 574.413 640.155 574.938 639.818 575.631C639.485 576.324 639.318 577.174 639.318 578.182C639.318 579.189 639.485 580.04 639.818 580.733C640.155 581.426 640.608 581.951 641.176 582.307C641.748 582.663 642.386 582.841 643.091 582.841C643.795 582.841 644.432 582.663 645 582.307C645.572 581.951 646.025 581.426 646.358 580.733C646.695 580.04 646.864 579.189 646.864 578.182ZM651.236 573.614V572.364H659.963V573.614H656.304V584H654.895V573.614H651.236ZM663.261 573.614V572.364H671.989V573.614H668.33V584H666.921V573.614H663.261ZM677.333 572.364V584H675.923V572.364H677.333ZM681.918 572.364H683.6L687.554 582.023H687.691L691.645 572.364H693.327V584H692.009V575.159H691.895L688.259 584H686.986L683.35 575.159H683.236V584H681.918V572.364ZM699.321 572.364V584H697.912V572.364H699.321ZM703.52 584V582.977L709.793 573.614H703.452V572.364H711.475V573.386L705.202 582.75H711.543V584H703.52ZM715.28 584V582.977L721.553 573.614H715.212V572.364H723.235V573.386L716.962 582.75H723.303V584H715.28ZM727.904 584H726.427L730.699 572.364H732.154L736.427 584H734.949L731.472 574.205H731.381L727.904 584ZM728.449 579.455H734.404V580.705H728.449V579.455ZM738.003 573.614V572.364H746.731V573.614H743.072V584H741.662V573.614H738.003ZM759.999 578.182C759.999 579.409 759.778 580.47 759.334 581.364C758.891 582.258 758.283 582.947 757.511 583.432C756.738 583.917 755.855 584.159 754.863 584.159C753.87 584.159 752.988 583.917 752.215 583.432C751.442 582.947 750.834 582.258 750.391 581.364C749.948 580.47 749.726 579.409 749.726 578.182C749.726 576.955 749.948 575.894 750.391 575C750.834 574.106 751.442 573.417 752.215 572.932C752.988 572.447 753.87 572.205 754.863 572.205C755.855 572.205 756.738 572.447 757.511 572.932C758.283 573.417 758.891 574.106 759.334 575C759.778 575.894 759.999 576.955 759.999 578.182ZM758.636 578.182C758.636 577.174 758.467 576.324 758.13 575.631C757.796 574.938 757.344 574.413 756.772 574.057C756.204 573.701 755.567 573.523 754.863 573.523C754.158 573.523 753.52 573.701 752.948 574.057C752.38 574.413 751.927 574.938 751.59 575.631C751.257 576.324 751.09 577.174 751.09 578.182C751.09 579.189 751.257 580.04 751.59 580.733C751.927 581.426 752.38 581.951 752.948 582.307C753.52 582.663 754.158 582.841 754.863 582.841C755.567 582.841 756.204 582.663 756.772 582.307C757.344 581.951 757.796 581.426 758.13 580.733C758.467 580.04 758.636 579.189 758.636 578.182Z" fill="black"/>
</svg>
