<svg width="1200" height="800" viewBox="0 0 1200 800" fill="none" xmlns="http://www.w3.org/2000/svg">
<rect width="1200" height="800" fill="white"/>
<rect x="145" y="254" width="909" height="100" rx="50" fill="#D9D9D9"/>
<rect x="145" y="254" width="692" height="100" rx="50" fill="#2D0C00"/>
<rect x="145" y="419" width="909" height="100" rx="50" fill="#D9D9D9"/>
<rect x="145" y="419" width="297" height="100" rx="50" fill="#FF4500"/>
<path d="M723.182 327L741.455 290.818V290.545H720V280.455H754.545V290.545L736.182 327H723.182ZM775.586 328.273C771.359 328.258 767.707 327.28 764.632 325.341C761.556 323.402 759.185 320.606 757.518 316.955C755.851 313.303 755.026 308.924 755.041 303.818C755.056 298.697 755.889 294.348 757.541 290.773C759.207 287.197 761.571 284.477 764.632 282.614C767.707 280.75 771.359 279.818 775.586 279.818C779.813 279.818 783.465 280.758 786.541 282.636C789.616 284.5 791.988 287.22 793.654 290.795C795.321 294.371 796.147 298.712 796.132 303.818C796.132 308.955 795.298 313.348 793.632 317C791.965 320.652 789.594 323.447 786.518 325.386C783.457 327.311 779.813 328.273 775.586 328.273ZM775.586 318C777.768 318 779.556 316.864 780.95 314.591C782.359 312.303 783.056 308.712 783.041 303.818C783.041 300.621 782.723 298.008 782.086 295.977C781.45 293.947 780.571 292.447 779.45 291.477C778.329 290.492 777.041 290 775.586 290C773.404 290 771.624 291.106 770.245 293.318C768.866 295.53 768.162 299.03 768.132 303.818C768.116 307.076 768.427 309.758 769.063 311.864C769.7 313.955 770.579 315.5 771.7 316.5C772.836 317.5 774.132 318 775.586 318Z" fill="#FFFFF7"/>
<path d="M336.091 492V482.909L353.455 468.545C354.606 467.591 355.591 466.697 356.409 465.864C357.242 465.015 357.879 464.144 358.318 463.25C358.773 462.356 359 461.364 359 460.273C359 459.076 358.742 458.053 358.227 457.205C357.727 456.356 357.03 455.705 356.136 455.25C355.242 454.78 354.212 454.545 353.045 454.545C351.879 454.545 350.848 454.78 349.955 455.25C349.076 455.72 348.394 456.409 347.909 457.318C347.424 458.227 347.182 459.333 347.182 460.636H335.182C335.182 457.364 335.917 454.545 337.386 452.182C338.856 449.818 340.932 448 343.614 446.727C346.295 445.455 349.439 444.818 353.045 444.818C356.773 444.818 360 445.417 362.727 446.614C365.47 447.795 367.583 449.462 369.068 451.614C370.568 453.765 371.318 456.288 371.318 459.182C371.318 460.97 370.947 462.75 370.205 464.523C369.462 466.28 368.129 468.227 366.205 470.364C364.28 472.5 361.545 475.045 358 478L353.636 481.636V481.909H371.818V492H336.091ZM393.899 493.273C389.671 493.258 386.02 492.28 382.944 490.341C379.868 488.402 377.497 485.606 375.83 481.955C374.164 478.303 373.338 473.924 373.353 468.818C373.368 463.697 374.202 459.348 375.853 455.773C377.52 452.197 379.883 449.477 382.944 447.614C386.02 445.75 389.671 444.818 393.899 444.818C398.126 444.818 401.777 445.758 404.853 447.636C407.929 449.5 410.3 452.22 411.967 455.795C413.633 459.371 414.459 463.712 414.444 468.818C414.444 473.955 413.611 478.348 411.944 482C410.277 485.652 407.906 488.447 404.83 490.386C401.77 492.311 398.126 493.273 393.899 493.273ZM393.899 483C396.08 483 397.868 481.864 399.262 479.591C400.671 477.303 401.368 473.712 401.353 468.818C401.353 465.621 401.035 463.008 400.399 460.977C399.762 458.947 398.883 457.447 397.762 456.477C396.641 455.492 395.353 455 393.899 455C391.717 455 389.937 456.106 388.558 458.318C387.179 460.53 386.474 464.03 386.444 468.818C386.429 472.076 386.74 474.758 387.376 476.864C388.012 478.955 388.891 480.5 390.012 481.5C391.149 482.5 392.444 483 393.899 483Z" fill="#FFFFF7"/>
<path d="M199.227 536.182C199.227 537.409 199.006 538.47 198.562 539.364C198.119 540.258 197.511 540.947 196.739 541.432C195.966 541.917 195.083 542.159 194.091 542.159C193.098 542.159 192.216 541.917 191.443 541.432C190.67 540.947 190.063 540.258 189.619 539.364C189.176 538.47 188.955 537.409 188.955 536.182C188.955 534.955 189.176 533.894 189.619 533C190.063 532.106 190.67 531.417 191.443 530.932C192.216 530.447 193.098 530.205 194.091 530.205C195.083 530.205 195.966 530.447 196.739 530.932C197.511 531.417 198.119 532.106 198.562 533C199.006 533.894 199.227 534.955 199.227 536.182ZM197.864 536.182C197.864 535.174 197.695 534.324 197.358 533.631C197.025 532.938 196.572 532.413 196 532.057C195.432 531.701 194.795 531.523 194.091 531.523C193.386 531.523 192.748 531.701 192.176 532.057C191.608 532.413 191.155 532.938 190.818 533.631C190.485 534.324 190.318 535.174 190.318 536.182C190.318 537.189 190.485 538.04 190.818 538.733C191.155 539.426 191.608 539.951 192.176 540.307C192.748 540.663 193.386 540.841 194.091 540.841C194.795 540.841 195.432 540.663 196 540.307C196.572 539.951 197.025 539.426 197.358 538.733C197.695 538.04 197.864 537.189 197.864 536.182ZM202.236 531.614V530.364H210.963V531.614H207.304V542H205.895V531.614H202.236ZM214.261 531.614V530.364H222.989V531.614H219.33V542H217.921V531.614H214.261ZM228.333 530.364V542H226.923V530.364H228.333ZM232.918 530.364H234.6L238.554 540.023H238.691L242.645 530.364H244.327V542H243.009V533.159H242.895L239.259 542H237.986L234.35 533.159H234.236V542H232.918V530.364ZM250.321 530.364V542H248.912V530.364H250.321ZM254.52 542V540.977L260.793 531.614H254.452V530.364H262.475V531.386L256.202 540.75H262.543V542H254.52ZM266.28 542V540.977L272.553 531.614H266.212V530.364H274.235V531.386L267.962 540.75H274.303V542H266.28ZM278.904 542H277.427L281.699 530.364H283.154L287.427 542H285.949L282.472 532.205H282.381L278.904 542ZM279.449 537.455H285.404V538.705H279.449V537.455ZM289.003 531.614V530.364H297.731V531.614H294.072V542H292.662V531.614H289.003ZM310.999 536.182C310.999 537.409 310.778 538.47 310.334 539.364C309.891 540.258 309.283 540.947 308.511 541.432C307.738 541.917 306.855 542.159 305.863 542.159C304.87 542.159 303.988 541.917 303.215 541.432C302.442 540.947 301.834 540.258 301.391 539.364C300.948 538.47 300.726 537.409 300.726 536.182C300.726 534.955 300.948 533.894 301.391 533C301.834 532.106 302.442 531.417 303.215 530.932C303.988 530.447 304.87 530.205 305.863 530.205C306.855 530.205 307.738 530.447 308.511 530.932C309.283 531.417 309.891 532.106 310.334 533C310.778 533.894 310.999 534.955 310.999 536.182ZM309.636 536.182C309.636 535.174 309.467 534.324 309.13 533.631C308.796 532.938 308.344 532.413 307.772 532.057C307.204 531.701 306.567 531.523 305.863 531.523C305.158 531.523 304.52 531.701 303.948 532.057C303.38 532.413 302.927 532.938 302.59 533.631C302.257 534.324 302.09 535.174 302.09 536.182C302.09 537.189 302.257 538.04 302.59 538.733C302.927 539.426 303.38 539.951 303.948 540.307C304.52 540.663 305.158 540.841 305.863 540.841C306.567 540.841 307.204 540.663 307.772 540.307C308.344 539.951 308.796 539.426 309.13 538.733C309.467 538.04 309.636 537.189 309.636 536.182Z" fill="black"/>
<path d="M198.636 365.364V377H197.273L190.932 367.864H190.818V377H189.409V365.364H190.773L197.136 374.523H197.25V365.364H198.636ZM213.034 371.182C213.034 372.409 212.813 373.47 212.369 374.364C211.926 375.258 211.318 375.947 210.546 376.432C209.773 376.917 208.89 377.159 207.898 377.159C206.905 377.159 206.023 376.917 205.25 376.432C204.477 375.947 203.869 375.258 203.426 374.364C202.983 373.47 202.761 372.409 202.761 371.182C202.761 369.955 202.983 368.894 203.426 368C203.869 367.106 204.477 366.417 205.25 365.932C206.023 365.447 206.905 365.205 207.898 365.205C208.89 365.205 209.773 365.447 210.546 365.932C211.318 366.417 211.926 367.106 212.369 368C212.813 368.894 213.034 369.955 213.034 371.182ZM211.671 371.182C211.671 370.174 211.502 369.324 211.165 368.631C210.831 367.938 210.379 367.413 209.807 367.057C209.239 366.701 208.602 366.523 207.898 366.523C207.193 366.523 206.555 366.701 205.983 367.057C205.415 367.413 204.962 367.938 204.625 368.631C204.292 369.324 204.125 370.174 204.125 371.182C204.125 372.189 204.292 373.04 204.625 373.733C204.962 374.426 205.415 374.951 205.983 375.307C206.555 375.663 207.193 375.841 207.898 375.841C208.602 375.841 209.239 375.663 209.807 375.307C210.379 374.951 210.831 374.426 211.165 373.733C211.502 373.04 211.671 372.189 211.671 371.182ZM226.391 365.364V377H225.027L218.686 367.864H218.573V377H217.163V365.364H218.527L224.891 374.523H225.004V365.364H226.391ZM247.049 371.182C247.049 372.409 246.827 373.47 246.384 374.364C245.941 375.258 245.333 375.947 244.56 376.432C243.787 376.917 242.905 377.159 241.912 377.159C240.92 377.159 240.037 376.917 239.264 376.432C238.492 375.947 237.884 375.258 237.441 374.364C236.997 373.47 236.776 372.409 236.776 371.182C236.776 369.955 236.997 368.894 237.441 368C237.884 367.106 238.492 366.417 239.264 365.932C240.037 365.447 240.92 365.205 241.912 365.205C242.905 365.205 243.787 365.447 244.56 365.932C245.333 366.417 245.941 367.106 246.384 368C246.827 368.894 247.049 369.955 247.049 371.182ZM245.685 371.182C245.685 370.174 245.516 369.324 245.179 368.631C244.846 367.938 244.393 367.413 243.821 367.057C243.253 366.701 242.617 366.523 241.912 366.523C241.208 366.523 240.569 366.701 239.997 367.057C239.429 367.413 238.977 367.938 238.639 368.631C238.306 369.324 238.139 370.174 238.139 371.182C238.139 372.189 238.306 373.04 238.639 373.733C238.977 374.426 239.429 374.951 239.997 375.307C240.569 375.663 241.208 375.841 241.912 375.841C242.617 375.841 243.253 375.663 243.821 375.307C244.393 374.951 244.846 374.426 245.179 373.733C245.516 373.04 245.685 372.189 245.685 371.182ZM250.057 366.614V365.364H258.784V366.614H255.125V377H253.716V366.614H250.057ZM262.083 366.614V365.364H270.81V366.614H267.151V377H265.742V366.614H262.083ZM276.154 365.364V377H274.745V365.364H276.154ZM280.739 365.364H282.421L286.375 375.023H286.512L290.466 365.364H292.148V377H290.83V368.159H290.716L287.08 377H285.807L282.171 368.159H282.057V377H280.739V365.364ZM298.143 365.364V377H296.733V365.364H298.143ZM302.341 377V375.977L308.614 366.614H302.273V365.364H310.296V366.386L304.023 375.75H310.364V377H302.341ZM314.101 377V375.977L320.374 366.614H314.033V365.364H322.056V366.386L315.783 375.75H322.124V377H314.101ZM326.725 377H325.248L329.521 365.364H330.975L335.248 377H333.771L330.293 367.205H330.202L326.725 377ZM327.271 372.455H333.225V373.705H327.271V372.455ZM336.825 366.614V365.364H345.552V366.614H341.893V377H340.484V366.614H336.825ZM358.82 371.182C358.82 372.409 358.599 373.47 358.156 374.364C357.712 375.258 357.104 375.947 356.332 376.432C355.559 376.917 354.676 377.159 353.684 377.159C352.692 377.159 351.809 376.917 351.036 376.432C350.264 375.947 349.656 375.258 349.212 374.364C348.769 373.47 348.548 372.409 348.548 371.182C348.548 369.955 348.769 368.894 349.212 368C349.656 367.106 350.264 366.417 351.036 365.932C351.809 365.447 352.692 365.205 353.684 365.205C354.676 365.205 355.559 365.447 356.332 365.932C357.104 366.417 357.712 367.106 358.156 368C358.599 368.894 358.82 369.955 358.82 371.182ZM357.457 371.182C357.457 370.174 357.288 369.324 356.951 368.631C356.618 367.938 356.165 367.413 355.593 367.057C355.025 366.701 354.389 366.523 353.684 366.523C352.979 366.523 352.341 366.701 351.769 367.057C351.201 367.413 350.748 367.938 350.411 368.631C350.078 369.324 349.911 370.174 349.911 371.182C349.911 372.189 350.078 373.04 350.411 373.733C350.748 374.426 351.201 374.951 351.769 375.307C352.341 375.663 352.979 375.841 353.684 375.841C354.389 375.841 355.025 375.663 355.593 375.307C356.165 374.951 356.618 374.426 356.951 373.733C357.288 373.04 357.457 372.189 357.457 371.182Z" fill="black"/>
</svg>
