<svg width="601" height="601" viewBox="0 0 601 601" fill="none" xmlns="http://www.w3.org/2000/svg">
<g clip-path="url(#clip0_148_3)">
<path d="M601 300.494H500.839V400.655H601V300.494Z" fill="white"/>
<path d="M574.797 400.667C574.797 386.219 586.552 374.464 601 374.464V379.187C589.161 379.187 579.521 388.827 579.521 400.667H574.785H574.797Z" fill="#FF4500"/>
<path d="M560.001 400.667C560.001 378.058 578.391 359.667 601 359.667V364.403C580.999 364.403 564.736 380.678 564.736 400.679H560.001V400.667Z" fill="#FF4500"/>
<path d="M545.204 400.667C545.204 369.908 570.229 344.883 601 344.883V349.619C572.85 349.619 549.94 372.528 549.94 400.679H545.204V400.667Z" fill="#FF4500"/>
<path d="M530.42 400.667C530.42 361.747 562.08 330.087 601 330.087V334.822C564.688 334.822 535.144 364.367 535.144 400.679H530.408L530.42 400.667Z" fill="#FF4500"/>
<path d="M515.624 400.667C515.624 353.597 553.919 315.29 601 315.29V320.026C556.527 320.026 520.359 356.206 520.359 400.667H515.624Z" fill="#FF4500"/>
<path d="M500.839 400.667C500.839 345.436 545.769 300.506 601 300.506V305.242C548.377 305.242 505.563 348.056 505.563 400.679H500.827L500.839 400.667Z" fill="#FF4500"/>
<path d="M601 200.333H500.839V300.494H601V200.333Z" fill="white"/>
<path d="M601 226.536C586.552 226.536 574.785 214.781 574.785 200.333H579.521C579.521 212.173 589.149 221.813 601 221.813V226.548V226.536Z" fill="#2D0C00"/>
<path d="M601 241.333C578.391 241.333 560.001 222.942 560.001 200.333H564.736C564.736 220.334 581.011 236.597 601.012 236.597V241.333H601Z" fill="#2D0C00"/>
<path d="M601 256.129C570.241 256.129 545.204 231.104 545.204 200.333H549.94C549.94 228.484 572.838 251.393 601 251.393V256.129Z" fill="#2D0C00"/>
<path d="M601 270.925C562.08 270.925 530.42 239.265 530.42 200.345H535.156C535.156 236.657 564.7 266.202 601.012 266.202V270.937L601 270.925Z" fill="#2D0C00"/>
<path d="M601 285.71C553.919 285.71 515.624 247.415 515.624 200.333H520.359C520.359 244.806 556.539 280.974 601 280.974V285.71Z" fill="#2D0C00"/>
<path d="M601 300.494C545.769 300.494 500.839 255.564 500.839 200.333H505.575C505.575 252.956 548.389 295.77 601.012 295.77V300.506L601 300.494Z" fill="#2D0C00"/>
<path d="M601 100.161H500.839V200.321H601V100.161Z" fill="white"/>
<path d="M500.839 174.118C515.287 174.118 527.054 185.874 527.054 200.321H522.331C522.331 188.482 512.691 178.842 500.851 178.842V174.106L500.839 174.118Z" fill="#2D0C00"/>
<path d="M500.839 159.322C523.448 159.322 541.839 177.712 541.839 200.321H537.103C537.103 180.32 520.828 164.058 500.827 164.058V159.322H500.839Z" fill="#2D0C00"/>
<path d="M500.839 144.538C531.598 144.538 556.635 169.563 556.635 200.333H551.899C551.899 172.183 529.002 149.273 500.839 149.273V144.538Z" fill="#2D0C00"/>
<path d="M500.839 129.741C539.759 129.741 571.419 161.401 571.419 200.321H566.684C566.684 164.01 537.139 134.465 500.827 134.465V129.741H500.839Z" fill="#2D0C00"/>
<path d="M500.839 114.945C547.921 114.945 586.216 153.24 586.216 200.321H581.48C581.48 155.848 545.3 119.681 500.839 119.681V114.945Z" fill="#2D0C00"/>
<path d="M500.839 100.161C556.07 100.161 601 145.091 601 200.321H596.264C596.264 147.699 553.45 104.896 500.827 104.896V100.161H500.839Z" fill="#2D0C00"/>
<path d="M400.667 300.494H300.506V400.655H400.667V300.494Z" fill="white"/>
<path d="M326.721 300.494C326.721 314.942 314.966 326.697 300.518 326.697V321.973C312.357 321.973 321.997 312.333 321.997 300.494H326.733H326.721Z" fill="#2D0C00"/>
<path d="M341.505 300.494C341.505 323.103 323.115 341.493 300.506 341.493V336.758C320.507 336.758 336.77 320.483 336.77 300.482H341.505V300.494Z" fill="#2D0C00"/>
<path d="M356.302 300.494C356.302 331.252 331.276 356.278 300.518 356.278V351.554C328.668 351.554 351.578 328.644 351.578 300.494H356.302Z" fill="#2D0C00"/>
<path d="M371.098 300.494C371.098 339.414 339.438 371.074 300.518 371.074V366.338C336.83 366.338 366.374 336.794 366.374 300.482H371.11L371.098 300.494Z" fill="#2D0C00"/>
<path d="M385.882 300.494C385.882 347.563 347.587 385.87 300.506 385.87V381.134C344.967 381.134 381.147 344.955 381.147 300.494H385.882Z" fill="#2D0C00"/>
<path d="M400.667 300.494C400.667 355.725 355.737 400.655 300.506 400.655V395.919C353.129 395.919 395.943 353.104 395.943 300.482H400.679L400.667 300.494Z" fill="#2D0C00"/>
<path d="M500.827 300.494H400.667V400.655H500.827V300.494Z" fill="#FF4500"/>
<path d="M426.882 300.494C426.882 314.954 415.126 326.709 400.679 326.709V321.973C412.518 321.973 422.158 312.345 422.158 300.494H426.894H426.882Z" fill="white"/>
<path d="M441.678 300.494C441.678 323.103 423.288 341.505 400.679 341.505V336.769C420.679 336.769 436.942 320.495 436.942 300.494H441.678Z" fill="white"/>
<path d="M456.462 300.494C456.462 331.252 431.437 356.29 400.679 356.29V351.554C428.829 351.554 451.738 328.656 451.738 300.494H456.462Z" fill="white"/>
<path d="M471.259 300.494C471.259 339.414 439.599 371.074 400.679 371.074V366.338C436.99 366.338 466.535 336.794 466.535 300.482H471.271L471.259 300.494Z" fill="white"/>
<path d="M486.055 300.494C486.055 347.575 447.76 385.87 400.679 385.87V381.134C445.14 381.134 481.319 344.967 481.319 300.494H486.055Z" fill="white"/>
<path d="M500.839 300.494C500.839 355.725 455.909 400.655 400.679 400.655V395.919C453.301 395.919 496.115 353.104 496.115 300.482H500.851L500.839 300.494Z" fill="white"/>
<path d="M500.827 200.333H400.667V300.494H500.827V200.333Z" fill="white"/>
<path d="M500.839 226.536C486.392 226.536 474.624 214.781 474.624 200.333H479.36C479.36 212.173 488.988 221.813 500.839 221.813V226.548V226.536Z" fill="#2D0C00"/>
<path d="M500.839 241.333C478.23 241.333 459.84 222.942 459.84 200.333H464.576C464.576 220.334 480.85 236.597 500.851 236.597V241.333H500.839Z" fill="#2D0C00"/>
<path d="M500.839 256.129C470.081 256.129 445.044 231.104 445.044 200.333H449.779C449.779 228.484 472.677 251.393 500.839 251.393V256.129Z" fill="#2D0C00"/>
<path d="M500.839 270.925C461.919 270.925 430.259 239.265 430.259 200.345H434.995C434.995 236.657 464.54 266.202 500.839 266.202V270.937V270.925Z" fill="#2D0C00"/>
<path d="M500.839 285.71C453.758 285.71 415.463 247.415 415.463 200.333H420.199C420.199 244.794 456.366 280.974 500.839 280.974V285.71Z" fill="#2D0C00"/>
<path d="M500.839 300.494C445.608 300.494 400.679 255.564 400.679 200.333H405.414C405.414 252.956 448.229 295.758 500.851 295.758V300.494H500.839Z" fill="#2D0C00"/>
<path d="M300.506 300.494H200.333V400.667H300.506V300.494Z" fill="#FF4500"/>
<path d="M300.506 326.709C286.058 326.709 274.291 314.954 274.291 300.494H279.027C279.027 312.333 288.667 321.973 300.506 321.973V326.709Z" fill="white"/>
<path d="M300.506 341.505C277.897 341.505 259.495 323.115 259.495 300.506H264.23C264.23 320.507 280.505 336.77 300.506 336.77V341.505Z" fill="white"/>
<path d="M300.506 356.29C269.747 356.29 244.71 331.265 244.71 300.494H249.446C249.446 328.656 272.344 351.554 300.506 351.554V356.29Z" fill="white"/>
<path d="M300.506 371.086C261.586 371.086 229.926 339.414 229.926 300.494H234.662C234.662 336.806 264.206 366.35 300.518 366.35V371.086H300.506Z" fill="white"/>
<path d="M300.506 385.882C253.425 385.882 215.13 347.587 215.13 300.506H219.865C219.865 344.979 256.033 381.159 300.506 381.159V385.894V385.882Z" fill="white"/>
<path d="M300.506 400.667C245.275 400.667 200.333 355.737 200.333 300.506H205.069C205.069 353.128 247.883 395.943 300.506 395.943V400.679V400.667Z" fill="white"/>
<path d="M601 0H500.839V100.161H601V0Z" fill="#FF4500"/>
<path d="M574.797 100.161C574.797 85.7129 586.552 73.9576 601 73.9576V78.6813C589.161 78.6813 579.521 88.3212 579.521 100.161H574.785H574.797Z" fill="white"/>
<path d="M560.001 100.161C560.001 77.5515 578.391 59.1613 601 59.1613V63.897C580.999 63.897 564.736 80.1718 564.736 100.161H560.001Z" fill="white"/>
<path d="M545.204 100.161C545.204 69.4021 570.229 44.3769 600.988 44.3769V49.1127C572.838 49.1127 549.928 72.0224 549.928 100.173H545.192L545.204 100.161Z" fill="white"/>
<path d="M530.42 100.161C530.42 61.2407 562.08 29.5806 601 29.5806V34.3164C564.688 34.3164 535.144 63.861 535.144 100.161H530.408H530.42Z" fill="white"/>
<path d="M515.624 100.161C515.624 53.0913 553.919 14.7963 601 14.7963V19.5321C556.539 19.5321 520.359 55.7116 520.359 100.173H515.624V100.161Z" fill="white"/>
<path d="M500.839 100.161C500.839 44.9299 545.769 0 601 0V4.73579C548.377 4.73579 505.575 47.5502 505.575 100.161H500.839Z" fill="white"/>
<path d="M200.345 200.333H100.173V300.506H200.345V200.333Z" fill="#2D0C00"/>
<path d="M174.118 300.494C174.118 286.046 185.874 274.291 200.321 274.291V279.015C188.482 279.015 178.842 288.655 178.842 300.494H174.106H174.118Z" fill="#FF4500"/>
<path d="M159.334 300.494C159.334 277.885 177.724 259.495 200.333 259.495V264.23C180.332 264.23 164.07 280.505 164.07 300.506H159.334V300.494Z" fill="#FF4500"/>
<path d="M144.538 300.494C144.538 269.735 169.563 244.71 200.333 244.71V249.446C172.183 249.446 149.273 272.356 149.273 300.506H144.538V300.494Z" fill="#FF4500"/>
<path d="M129.741 300.494C129.741 261.574 161.413 229.914 200.333 229.914V234.65C164.022 234.65 134.477 264.194 134.477 300.506H129.741V300.494Z" fill="#FF4500"/>
<path d="M114.957 300.494C114.957 253.425 153.252 215.118 200.333 215.118V219.853C155.86 219.853 119.693 256.033 119.693 300.494H114.957Z" fill="#FF4500"/>
<path d="M100.173 300.494C100.173 245.263 145.103 200.321 200.333 200.321V205.057C147.711 205.057 104.896 247.871 104.896 300.494H100.161H100.173Z" fill="#FF4500"/>
<path d="M400.667 100.173H300.506V200.333H400.667V100.173Z" fill="white"/>
<path d="M400.667 126.376C386.219 126.376 374.452 114.62 374.452 100.173H379.187C379.187 112.012 388.815 121.652 400.667 121.652V126.388V126.376Z" fill="#2D0C00"/>
<path d="M400.667 141.172C378.057 141.172 359.667 122.782 359.667 100.173H364.403C364.403 120.174 380.678 136.436 400.679 136.436V141.172H400.667Z" fill="#2D0C00"/>
<path d="M400.667 155.956C369.908 155.956 344.883 130.931 344.883 100.173H349.619C349.619 128.323 372.516 151.233 400.679 151.233V155.968L400.667 155.956Z" fill="#2D0C00"/>
<path d="M400.667 170.753C361.747 170.753 330.087 139.093 330.087 100.173H334.822C334.822 136.484 364.367 166.029 400.667 166.029V170.765V170.753Z" fill="#2D0C00"/>
<path d="M400.667 185.549C353.585 185.549 315.29 147.254 315.29 100.173H320.026C320.026 144.634 356.194 180.813 400.667 180.813V185.549Z" fill="#2D0C00"/>
<path d="M400.667 200.333C345.436 200.333 300.506 155.403 300.506 100.173H305.242C305.242 152.795 348.056 195.598 400.679 195.598V200.333H400.667Z" fill="#2D0C00"/>
<path d="M400.667 400.667H300.506V500.827H400.667V400.667Z" fill="#FF4500"/>
<path d="M374.464 500.839C374.464 486.392 386.219 474.636 400.667 474.636V479.36C388.827 479.36 379.187 489 379.187 500.839H374.452H374.464Z" fill="#2D0C00"/>
<path d="M359.667 500.839C359.667 478.23 378.057 459.84 400.667 459.84V464.576C380.666 464.576 364.403 480.85 364.403 500.851H359.667V500.839Z" fill="#2D0C00"/>
<path d="M344.871 500.839C344.871 470.081 369.896 445.056 400.667 445.056V449.791C372.516 449.791 349.607 472.701 349.607 500.851H344.871V500.839Z" fill="#2D0C00"/>
<path d="M330.087 500.839C330.087 461.919 361.747 430.259 400.667 430.259V434.995C364.355 434.995 334.81 464.54 334.81 500.851H330.075L330.087 500.839Z" fill="#2D0C00"/>
<path d="M315.29 500.839C315.29 453.77 353.585 415.463 400.667 415.463V420.199C356.194 420.199 320.026 456.378 320.026 500.839H315.29Z" fill="#2D0C00"/>
<path d="M300.506 500.839C300.506 445.608 345.436 400.679 400.667 400.679V405.414C348.044 405.414 305.23 448.229 305.23 500.851H300.494L300.506 500.839Z" fill="#2D0C00"/>
<path d="M300.494 400.667H200.333V500.827H300.494V400.667Z" fill="#FF4500"/>
<path d="M274.291 500.839C274.291 486.392 286.046 474.636 300.494 474.636V479.36C288.655 479.36 279.015 489 279.015 500.839H274.279H274.291Z" fill="white"/>
<path d="M259.495 500.839C259.495 478.23 277.885 459.84 300.494 459.84V464.576C280.493 464.576 264.23 480.85 264.23 500.851H259.495V500.839Z" fill="white"/>
<path d="M244.71 500.839C244.71 470.081 269.735 445.056 300.506 445.056V449.791C272.356 449.791 249.446 472.701 249.446 500.851H244.71V500.839Z" fill="white"/>
<path d="M229.914 500.839C229.914 461.919 261.574 430.259 300.494 430.259V434.995C264.182 434.995 234.638 464.54 234.638 500.851H229.902L229.914 500.839Z" fill="white"/>
<path d="M215.13 500.839C215.13 453.77 253.425 415.463 300.506 415.463V420.199C256.033 420.199 219.865 456.378 219.865 500.839H215.13Z" fill="white"/>
<path d="M200.333 500.839C200.333 445.608 245.263 400.679 300.494 400.679V405.414C247.871 405.414 205.057 448.229 205.057 500.851H200.321L200.333 500.839Z" fill="white"/>
<path d="M601.012 400.667H400.679V601H601.012V400.667Z" fill="white"/>
<path d="M601 453.097C572.092 453.097 548.582 429.586 548.582 400.679H558.041C558.041 424.358 577.309 443.637 601 443.637V453.097Z" fill="#2D0C00"/>
<path d="M601 482.677C555.782 482.677 518.989 445.885 518.989 400.679H528.449C528.449 440.68 560.998 473.218 601 473.218V482.689V482.677Z" fill="#2D0C00"/>
<path d="M601 512.258C539.483 512.258 489.421 462.208 489.421 400.679H498.892C498.892 456.991 544.699 502.799 601 502.799V512.258Z" fill="#2D0C00"/>
<path d="M601 541.851C523.16 541.851 459.84 478.519 459.84 400.679H469.299C469.299 473.302 528.377 532.391 601 532.391V541.851Z" fill="#2D0C00"/>
<path d="M601 571.431C506.849 571.431 430.247 494.841 430.247 400.679H439.719C439.719 489.613 512.066 561.972 601 561.972V571.431Z" fill="#2D0C00"/>
<path d="M601 601C490.538 601 400.667 511.14 400.667 400.679H410.126C410.126 505.924 495.755 591.54 601 591.54V601Z" fill="#2D0C00"/>
<path d="M400.667 500.839H300.506V601H400.667V500.839Z" fill="#2D0C00"/>
<path d="M300.506 574.797C314.954 574.797 326.709 586.552 326.709 601H321.985C321.985 589.161 312.345 579.521 300.506 579.521V574.785V574.797Z" fill="#FF4500"/>
<path d="M300.506 560.001C323.115 560.001 341.505 578.391 341.505 601H336.77C336.77 580.999 320.495 564.736 300.494 564.736V560.001H300.506Z" fill="#FF4500"/>
<path d="M300.506 545.216C331.265 545.216 356.302 570.241 356.302 601H351.566C351.566 572.85 328.668 549.94 300.506 549.94V545.216Z" fill="#FF4500"/>
<path d="M300.506 530.42C339.426 530.42 371.086 562.08 371.086 601H366.35C366.35 564.688 336.806 535.144 300.494 535.144V530.408L300.506 530.42Z" fill="#FF4500"/>
<path d="M300.506 515.624C347.587 515.624 385.882 553.919 385.882 601H381.147C381.147 556.539 344.967 520.359 300.506 520.359V515.624Z" fill="#FF4500"/>
<path d="M300.506 500.839C355.737 500.839 400.667 545.769 400.667 601H395.931C395.931 548.377 353.116 505.563 300.494 505.563V500.827L300.506 500.839Z" fill="#FF4500"/>
<path d="M300.494 500.839H200.333V601H300.494V500.839Z" fill="#FF4500"/>
<path d="M226.548 500.839C226.548 515.299 214.793 527.054 200.345 527.054V522.319C212.185 522.319 221.825 512.691 221.825 500.839H226.56H226.548Z" fill="white"/>
<path d="M241.345 500.839C241.345 523.448 222.954 541.851 200.345 541.851V537.115C220.346 537.115 236.609 520.84 236.609 500.839H241.345Z" fill="white"/>
<path d="M256.129 500.839C256.129 531.598 231.104 556.635 200.345 556.635V551.899C228.495 551.899 251.405 529.001 251.405 500.839H256.129Z" fill="white"/>
<path d="M270.925 500.839C270.925 539.759 239.265 571.419 200.345 571.419V566.684C236.657 566.684 266.201 537.139 266.201 500.827H270.937L270.925 500.839Z" fill="white"/>
<path d="M285.71 500.839C285.71 547.921 247.415 586.216 200.333 586.216V581.48C244.794 581.48 280.974 545.312 280.974 500.839H285.71Z" fill="white"/>
<path d="M300.506 500.839C300.506 556.07 255.576 601 200.345 601V596.264C252.968 596.264 295.782 553.45 295.782 500.827H300.518L300.506 500.839Z" fill="white"/>
<path d="M200.333 500.839H100.173V601H200.333V500.839Z" fill="white"/>
<path d="M200.333 527.042C185.874 527.042 174.118 515.287 174.118 500.839H178.854C178.854 512.679 188.482 522.319 200.333 522.319V527.054V527.042Z" fill="#2D0C00"/>
<path d="M200.333 541.839C177.724 541.839 159.322 523.448 159.322 500.839H164.058C164.058 520.84 180.332 537.103 200.333 537.103V541.839Z" fill="#2D0C00"/>
<path d="M200.333 556.635C169.575 556.635 144.538 531.61 144.538 500.839H149.273C149.273 528.99 172.171 551.899 200.333 551.899V556.635Z" fill="#2D0C00"/>
<path d="M200.333 571.431C161.413 571.431 129.753 539.759 129.753 500.851H134.489C134.489 537.163 164.034 566.708 200.345 566.708V571.443L200.333 571.431Z" fill="#2D0C00"/>
<path d="M200.333 586.216C153.252 586.216 114.957 547.921 114.957 500.839H119.693C119.693 545.312 155.86 581.48 200.333 581.48V586.216Z" fill="#2D0C00"/>
<path d="M200.333 601C145.103 601 100.173 556.07 100.173 500.839H104.908C104.908 553.462 147.723 596.264 200.345 596.264V601H200.333Z" fill="#2D0C00"/>
<path d="M100.161 500.839H0V601H100.161V500.839Z" fill="#2D0C00"/>
<path d="M73.9576 601C73.9576 586.552 85.7129 574.797 100.161 574.797V579.521C88.3212 579.521 78.6813 589.161 78.6813 601H73.9456H73.9576Z" fill="white"/>
<path d="M59.1613 601C59.1613 578.391 77.5515 560.001 100.161 560.001V564.736C80.1598 564.736 63.897 581.011 63.897 601.012H59.1613V601Z" fill="white"/>
<path d="M44.3769 601C44.3769 570.241 69.4021 545.216 100.173 545.216V549.952C72.0224 549.952 49.1127 572.862 49.1127 601.012H44.3769V601Z" fill="white"/>
<path d="M29.5806 601C29.5806 562.08 61.2407 530.42 100.161 530.42V535.156C63.849 535.156 34.3044 564.7 34.3044 601.012H29.5686L29.5806 601Z" fill="white"/>
<path d="M14.7843 601C14.7843 553.931 53.0793 515.624 100.161 515.624V520.359C55.6875 520.359 19.5201 556.539 19.5201 601H14.7843Z" fill="white"/>
<path d="M0 601C0 545.769 44.9299 500.839 100.161 500.839V505.575C47.5382 505.575 4.72377 548.389 4.72377 601.012H0V601Z" fill="white"/>
</g>
<defs>
<clipPath id="clip0_148_3">
<rect width="601" height="601" fill="white"/>
</clipPath>
</defs>
</svg>
