<svg width="1043" height="138" viewBox="0 0 1043 138" fill="none" xmlns="http://www.w3.org/2000/svg">
<path d="M39.0852 108H0.46875V7.63636H38.6932C49.017 7.63636 57.9361 9.64559 65.4503 13.6641C72.9972 17.6499 78.8125 23.3999 82.8963 30.9141C87.0128 38.3956 89.071 47.3636 89.071 57.8182C89.071 68.2727 87.0291 77.2571 82.9453 84.7713C78.8615 92.2528 73.0788 98.0028 65.5973 102.021C58.1158 106.007 49.2784 108 39.0852 108ZM27.7159 84.8693H38.1051C43.071 84.8693 47.3018 84.0689 50.7976 82.468C54.326 80.8672 57.005 78.1065 58.8345 74.1861C60.6967 70.2656 61.6278 64.8097 61.6278 57.8182C61.6278 50.8267 60.6804 45.3707 58.7855 41.4503C56.9233 37.5298 54.179 34.7692 50.5526 33.1683C46.9588 31.5675 42.5483 30.767 37.321 30.767H27.7159V84.8693Z" fill="#fffff7"/>
<path d="M93.7898 108V32.7273H120.841V108H93.7898ZM107.315 24.8864C103.656 24.8864 100.52 23.6776 97.9063 21.2599C95.2926 18.8423 93.9858 15.9347 93.9858 12.5369C93.9858 9.1392 95.2926 6.23153 97.9063 3.81392C100.52 1.39631 103.656 0.1875 107.315 0.1875C111.007 0.1875 114.143 1.39631 116.724 3.81392C119.338 6.23153 120.645 9.1392 120.645 12.5369C120.645 15.9347 119.338 18.8423 116.724 21.2599C114.143 23.6776 111.007 24.8864 107.315 24.8864Z" fill="#fffff7"/>
<path d="M195.148 57.2301H170.253C170.122 55.6946 169.583 54.3714 168.636 53.2607C167.688 52.1499 166.463 51.3004 164.96 50.7124C163.49 50.0916 161.857 49.7812 160.06 49.7812C157.74 49.7812 155.747 50.206 154.081 51.0554C152.415 51.9048 151.598 53.1136 151.631 54.6818C151.598 55.7926 152.072 56.8217 153.052 57.7692C154.065 58.7166 156.009 59.4517 158.884 59.9744L174.173 62.7188C181.884 64.1236 187.617 66.4922 191.374 69.8246C195.164 73.1243 197.075 77.5511 197.108 83.1051C197.075 88.4631 195.474 93.1186 192.305 97.0717C189.169 100.992 184.873 104.031 179.417 106.187C173.994 108.31 167.803 109.372 160.844 109.372C149.344 109.372 140.343 107.02 133.842 102.315C127.373 97.6108 123.763 91.4034 123.011 83.6932H149.867C150.226 86.0781 151.402 87.924 153.395 89.2308C155.42 90.505 157.969 91.142 161.04 91.142C163.523 91.142 165.565 90.7173 167.165 89.8679C168.799 89.0185 169.632 87.8097 169.665 86.2415C169.632 84.804 168.913 83.6605 167.509 82.8111C166.136 81.9616 163.98 81.2756 161.04 80.7528L147.71 78.4006C140.033 77.0611 134.283 74.5128 130.46 70.7557C126.638 66.9986 124.743 62.1634 124.776 56.25C124.743 51.0227 126.115 46.5959 128.892 42.9695C131.702 39.3104 135.704 36.5334 140.898 34.6385C146.126 32.7109 152.317 31.7472 159.472 31.7472C170.351 31.7472 178.927 34.0014 185.2 38.5099C191.505 43.0185 194.821 49.2585 195.148 57.2301Z" fill="#fffff7"/>
<path d="M235.457 109.372C227.289 109.372 220.298 107.755 214.482 104.521C208.667 101.254 204.208 96.7124 201.104 90.897C198 85.049 196.448 78.2699 196.448 70.5597C196.448 62.8494 198 56.0866 201.104 50.2713C204.208 44.4233 208.667 39.8821 214.482 36.6477C220.298 33.3807 227.289 31.7472 235.457 31.7472C242.84 31.7472 249.227 33.0866 254.618 35.7656C260.041 38.4119 264.24 42.169 267.213 47.0369C270.186 51.8722 271.688 57.5568 271.721 64.0909H246.63C246.271 60.1378 245.127 57.1321 243.2 55.0739C241.305 52.983 238.855 51.9375 235.849 51.9375C233.497 51.9375 231.438 52.6236 229.674 53.9957C227.91 55.3352 226.538 57.3771 225.558 60.1214C224.578 62.8331 224.088 66.2472 224.088 70.3636C224.088 74.4801 224.578 77.9105 225.558 80.6548C226.538 83.3665 227.91 85.4084 229.674 86.7805C231.438 88.12 233.497 88.7898 235.849 88.7898C237.842 88.7898 239.606 88.3324 241.142 87.4176C242.677 86.4702 243.919 85.098 244.866 83.3011C245.846 81.4716 246.434 79.25 246.63 76.6364H271.721C271.623 83.2685 270.104 89.0511 267.164 93.9844C264.223 98.8849 260.058 102.675 254.667 105.354C249.309 108.033 242.906 109.372 235.457 109.372Z" fill="#fffff7"/>
<path d="M274.602 108V32.7273H301.653V108H274.602ZM288.128 24.8864C284.469 24.8864 281.332 23.6776 278.719 21.2599C276.105 18.8423 274.798 15.9347 274.798 12.5369C274.798 9.1392 276.105 6.23153 278.719 3.81392C281.332 1.39631 284.469 0.1875 288.128 0.1875C291.819 0.1875 294.956 1.39631 297.537 3.81392C300.15 6.23153 301.457 9.1392 301.457 12.5369C301.457 15.9347 300.15 18.8423 297.537 21.2599C294.956 23.6776 291.819 24.8864 288.128 24.8864Z" fill="#fffff7"/>
<path d="M307.156 136.227V32.7273H334.011V45.8608H334.599C335.579 43.3125 337.017 40.9766 338.912 38.853C340.807 36.6967 343.159 34.9815 345.969 33.7074C348.778 32.4006 352.045 31.7472 355.77 31.7472C360.736 31.7472 365.457 33.0703 369.932 35.7166C374.441 38.3629 378.1 42.5284 380.91 48.2131C383.752 53.8977 385.173 61.2812 385.173 70.3636C385.173 79.054 383.817 86.2578 381.106 91.9751C378.427 97.6925 374.833 101.956 370.324 104.766C365.849 107.575 360.932 108.98 355.574 108.98C352.045 108.98 348.893 108.408 346.116 107.265C343.371 106.089 341.019 104.504 339.059 102.511C337.131 100.486 335.645 98.1989 334.599 95.6506H334.207V136.227H307.156ZM333.619 70.3636C333.619 74.0227 334.093 77.1918 335.04 79.8707C336.02 82.517 337.393 84.5753 339.157 86.0455C340.954 87.483 343.094 88.2017 345.577 88.2017C348.06 88.2017 350.167 87.4993 351.898 86.0945C353.663 84.657 355.002 82.6151 355.917 79.9688C356.864 77.2898 357.338 74.0881 357.338 70.3636C357.338 66.6392 356.864 63.4538 355.917 60.8075C355.002 58.1286 353.663 56.0866 351.898 54.6818C350.167 53.2443 348.06 52.5256 345.577 52.5256C343.094 52.5256 340.954 53.2443 339.157 54.6818C337.393 56.0866 336.02 58.1286 335.04 60.8075C334.093 63.4538 333.619 66.6392 333.619 70.3636Z" fill="#fffff7"/>
<path d="M415.277 7.63636V108H388.226V7.63636H415.277Z" fill="#fffff7"/>
<path d="M420.78 108V32.7273H447.831V108H420.78ZM434.305 24.8864C430.646 24.8864 427.51 23.6776 424.896 21.2599C422.283 18.8423 420.976 15.9347 420.976 12.5369C420.976 9.1392 422.283 6.23153 424.896 3.81392C427.51 1.39631 430.646 0.1875 434.305 0.1875C437.997 0.1875 441.133 1.39631 443.714 3.81392C446.328 6.23153 447.635 9.1392 447.635 12.5369C447.635 15.9347 446.328 18.8423 443.714 21.2599C441.133 23.6776 437.997 24.8864 434.305 24.8864Z" fill="#fffff7"/>
<path d="M480.385 65.6591V108H453.334V32.7273H479.013V47.0369H479.797C481.43 42.267 484.305 38.5263 488.422 35.8146C492.571 33.103 497.406 31.7472 502.927 31.7472C508.253 31.7472 512.876 32.9723 516.796 35.4226C520.749 37.8402 523.804 41.1726 525.96 45.4197C528.149 49.6669 529.227 54.5185 529.195 59.9744V108H502.143V65.6591C502.176 61.9347 501.229 59.0107 499.301 56.8871C497.406 54.7635 494.76 53.7017 491.362 53.7017C489.141 53.7017 487.197 54.1918 485.53 55.1719C483.897 56.1193 482.639 57.4915 481.757 59.2883C480.875 61.0526 480.417 63.1761 480.385 65.6591Z" fill="#fffff7"/>
<path d="M648.172 108H609.555V7.63636H647.78C658.104 7.63636 667.023 9.64559 674.537 13.6641C682.084 17.6499 687.899 23.3999 691.983 30.9141C696.1 38.3956 698.158 47.3636 698.158 57.8182C698.158 68.2727 696.116 77.2571 692.032 84.7713C687.948 92.2528 682.166 98.0028 674.684 102.021C667.202 106.007 658.365 108 648.172 108ZM636.803 84.8693H647.192C652.158 84.8693 656.389 84.0689 659.884 82.468C663.413 80.8672 666.092 78.1065 667.921 74.1861C669.783 70.2656 670.715 64.8097 670.715 57.8182C670.715 50.8267 669.767 45.3707 667.872 41.4503C666.01 37.5298 663.266 34.7692 659.639 33.1683C656.046 31.5675 651.635 30.767 646.408 30.767H636.803V84.8693Z" fill="#fffff7"/>
<path d="M848.74 57.2301H823.845C823.714 55.6946 823.175 54.3714 822.227 53.2607C821.28 52.1499 820.055 51.3004 818.552 50.7124C817.082 50.0916 815.448 49.7812 813.651 49.7812C811.332 49.7812 809.339 50.206 807.673 51.0554C806.007 51.9048 805.19 53.1136 805.222 54.6818C805.19 55.7926 805.664 56.8217 806.644 57.7692C807.656 58.7166 809.6 59.4517 812.475 59.9744L827.765 62.7188C835.475 64.1236 841.209 66.4922 844.966 69.8246C848.756 73.1243 850.667 77.5511 850.7 83.1051C850.667 88.4631 849.066 93.1186 845.897 97.0717C842.761 100.992 838.465 104.031 833.009 106.187C827.585 108.31 821.394 109.372 814.435 109.372C802.935 109.372 793.935 107.02 787.433 102.315C780.965 97.6108 777.355 91.4034 776.603 83.6932H803.458C803.818 86.0781 804.994 87.924 806.987 89.2308C809.012 90.505 811.561 91.142 814.632 91.142C817.114 91.142 819.156 90.7173 820.757 89.8679C822.391 89.0185 823.224 87.8097 823.257 86.2415C823.224 84.804 822.505 83.6605 821.1 82.8111C819.728 81.9616 817.572 81.2756 814.632 80.7528L801.302 78.4006C793.624 77.0611 787.874 74.5128 784.052 70.7557C780.23 66.9986 778.335 62.1634 778.367 56.25C778.335 51.0227 779.707 46.5959 782.484 42.9695C785.293 39.3104 789.296 36.5334 794.49 34.6385C799.717 32.7109 805.909 31.7472 813.063 31.7472C823.943 31.7472 832.519 34.0014 838.791 38.5099C845.097 43.0185 848.413 49.2585 848.74 57.2301Z" fill="#fffff7"/>
<path d="M852.784 108V32.7273H879.836V108H852.784ZM866.31 24.8864C862.651 24.8864 859.515 23.6776 856.901 21.2599C854.287 18.8423 852.98 15.9347 852.98 12.5369C852.98 9.1392 854.287 6.23153 856.901 3.81392C859.515 1.39631 862.651 0.1875 866.31 0.1875C870.002 0.1875 873.138 1.39631 875.719 3.81392C878.333 6.23153 879.639 9.1392 879.639 12.5369C879.639 15.9347 878.333 18.8423 875.719 21.2599C873.138 23.6776 870.002 24.8864 866.31 24.8864Z" fill="#fffff7"/>
<path d="M921.603 137.795C914.056 137.795 907.587 136.717 902.196 134.561C896.838 132.438 892.673 129.497 889.7 125.74C886.76 122.016 885.11 117.736 884.75 112.901H910.821C911.083 114.501 911.736 115.792 912.782 116.772C913.827 117.752 915.167 118.455 916.8 118.879C918.466 119.337 920.328 119.565 922.387 119.565C925.882 119.565 928.774 118.716 931.061 117.017C933.38 115.318 934.54 112.247 934.54 107.804V95.0625H933.756C932.776 97.6108 931.273 99.7834 929.247 101.58C927.222 103.344 924.788 104.7 921.946 105.648C919.103 106.563 915.983 107.02 912.586 107.02C907.228 107.02 902.294 105.778 897.786 103.295C893.31 100.813 889.716 96.8757 887.005 91.4851C884.326 86.0945 882.986 79.054 882.986 70.3636C882.986 61.2812 884.391 53.8977 887.201 48.2131C890.043 42.5284 893.702 38.3629 898.178 35.7166C902.686 33.0703 907.424 31.7472 912.39 31.7472C916.114 31.7472 919.381 32.4006 922.191 33.7074C925 34.9815 927.353 36.6967 929.247 38.853C931.142 40.9766 932.58 43.3125 933.56 45.8608H934.148V32.7273H961.199V107.804C961.199 114.175 959.549 119.582 956.25 124.025C952.983 128.501 948.376 131.915 942.43 134.267C936.484 136.619 929.542 137.795 921.603 137.795ZM922.583 87.8097C925.066 87.8097 927.189 87.1236 928.953 85.7514C930.75 84.3466 932.123 82.3537 933.07 79.7727C934.05 77.1591 934.54 74.0227 934.54 70.3636C934.54 66.6392 934.05 63.4538 933.07 60.8075C932.123 58.1286 930.75 56.0866 928.953 54.6818C927.189 53.2443 925.066 52.5256 922.583 52.5256C920.1 52.5256 917.976 53.2443 916.212 54.6818C914.48 56.0866 913.141 58.1286 912.193 60.8075C911.279 63.4538 910.821 66.6392 910.821 70.3636C910.821 74.0881 911.279 77.2571 912.193 79.8707C913.141 82.4517 914.48 84.4283 916.212 85.8004C917.976 87.1399 920.1 87.8097 922.583 87.8097Z" fill="#fffff7"/>
<path d="M993.729 65.6591V108H966.677V32.7273H992.357V47.0369H993.141C994.774 42.267 997.649 38.5263 1001.77 35.8146C1005.91 33.103 1010.75 31.7472 1016.27 31.7472C1021.6 31.7472 1026.22 32.9723 1030.14 35.4226C1034.09 37.8402 1037.15 41.1726 1039.3 45.4197C1041.49 49.6669 1042.57 54.5185 1042.54 59.9744V108H1015.49V65.6591C1015.52 61.9347 1014.57 59.0107 1012.64 56.8871C1010.75 54.7635 1008.1 53.7017 1004.71 53.7017C1002.48 53.7017 1000.54 54.1918 998.874 55.1719C997.241 56.1193 995.983 57.4915 995.101 59.2883C994.219 61.0526 993.761 63.1761 993.729 65.6591Z" fill="#fffff7"/>
<path d="M738.945 109.372C730.908 109.372 723.982 107.837 718.166 104.766C712.384 101.662 707.924 97.2188 704.788 91.4361C701.684 85.6207 700.132 78.6619 700.132 70.5597C700.132 62.7841 701.7 55.9886 704.837 50.1733C707.973 44.358 712.4 39.8331 718.117 36.5987C723.835 33.3643 730.581 31.7472 738.357 31.7472C744.041 31.7472 749.187 32.6293 753.793 34.3935C758.4 36.1577 762.337 38.7223 765.604 42.0874C768.871 45.4197 771.386 49.4709 773.151 54.2408C774.915 59.0107 775.797 64.3849 775.797 70.3636V76.6364H726.791V77.8125C726.791 80.2301 727.298 82.3864 728.31 84.2812C729.323 86.1761 730.777 87.6626 732.672 88.7408C734.567 89.8189 736.854 90.358 739.533 90.358C741.395 90.358 743.094 90.0966 744.629 89.5739C746.198 89.0511 747.537 88.2997 748.648 87.3196C749.759 86.3068 750.575 85.098 751.098 83.6932H775.797C774.948 88.9205 772.938 93.4617 769.769 97.3168C766.6 101.139 762.402 104.112 757.175 106.236C751.98 108.327 745.903 109.372 738.945 109.372ZM728.506 56.005C727.428 57.6385 726.857 59.5497 726.791 61.7386H750.902C750.869 59.5824 750.314 57.6875 749.236 56.054C748.19 54.3878 746.769 53.0973 744.972 52.1825C743.208 51.2351 741.199 50.7614 738.945 50.7614C736.756 50.7614 734.747 51.2351 732.917 52.1825C731.087 53.0973 729.617 54.3714 728.506 56.005Z" fill="#fffff7"/>
<path d="M570.337 109.372C562.3 109.372 555.374 107.837 549.558 104.766C543.776 101.662 539.316 97.2188 536.18 91.4361C533.076 85.6207 531.524 78.6619 531.524 70.5597C531.524 62.7841 533.092 55.9886 536.229 50.1733C539.365 44.358 543.792 39.8331 549.509 36.5987C555.227 33.3643 561.973 31.7472 569.749 31.7472C575.433 31.7472 580.579 32.6293 585.185 34.3935C589.792 36.1577 593.729 38.7223 596.996 42.0874C600.263 45.4197 602.778 49.4709 604.543 54.2408C606.307 59.0107 607.189 64.3849 607.189 70.3636V76.6364H558.183V77.8125C558.183 80.2301 558.69 82.3864 559.702 84.2812C560.715 86.1761 562.169 87.6626 564.064 88.7408C565.959 89.8189 568.246 90.358 570.925 90.358C572.787 90.358 574.486 90.0966 576.021 89.5739C577.59 89.0511 578.929 88.2997 580.04 87.3196C581.151 86.3068 581.967 85.098 582.49 83.6932H607.189C606.34 88.9205 604.33 93.4617 601.161 97.3168C597.992 101.139 593.794 104.112 588.567 106.236C583.372 108.327 577.295 109.372 570.337 109.372ZM559.898 56.005C558.82 57.6385 558.249 59.5497 558.183 61.7386H582.294C582.261 59.5824 581.706 57.6875 580.628 56.054C579.582 54.3878 578.161 53.0973 576.364 52.1825C574.6 51.2351 572.591 50.7614 570.337 50.7614C568.148 50.7614 566.139 51.2351 564.309 52.1825C562.479 53.0973 561.009 54.3714 559.898 56.005Z" fill="#fffff7"/>
</svg>
